<svg width="24" height="25" viewBox="0 0 24 25" fill="none" xmlns="http://www.w3.org/2000/svg">
<g clip-path="url(#clip0_1_2)">
<path fill-rule="evenodd" clip-rule="evenodd" d="M9.75 18.5C10.8334 18.5 11.9062 18.2866 12.9071 17.872C13.9081 17.4574 14.8175 16.8497 15.5836 16.0836C16.3497 15.3175 16.9574 14.4081 17.372 13.4071C17.7866 12.4062 18 11.3334 18 10.25C18 9.16659 17.7866 8.0938 17.372 7.09286C16.9574 6.09193 16.3497 5.18245 15.5836 4.41637C14.8175 3.65029 13.9081 3.0426 12.9071 2.62799C11.9062 2.21339 10.8334 2 9.75 2C7.56196 2 5.46354 2.86919 3.91637 4.41637C2.36919 5.96354 1.5 8.06196 1.5 10.25C1.5 12.438 2.36919 14.5365 3.91637 16.0836C5.46354 17.6308 7.56196 18.5 9.75 18.5ZM19.5 10.25C19.5 12.8359 18.4728 15.3158 16.6443 17.1443C14.8158 18.9728 12.3359 20 9.75 20C7.16414 20 4.68419 18.9728 2.85571 17.1443C1.02723 15.3158 0 12.8359 0 10.25C0 7.66414 1.02723 5.18419 2.85571 3.35571C4.68419 1.52723 7.16414 0.5 9.75 0.5C12.3359 0.5 14.8158 1.52723 16.6443 3.35571C18.4728 5.18419 19.5 7.66414 19.5 10.25Z" fill="white"/>
<path d="M15.516 18.113C15.56 18.173 15.609 18.2305 15.663 18.2855L21.438 24.0605C21.7193 24.342 22.1008 24.5002 22.4987 24.5003C22.8966 24.5004 23.2783 24.3425 23.5598 24.0612C23.8412 23.78 23.9994 23.3984 23.9996 23.0005C23.9997 22.6026 23.8418 22.221 23.5605 21.9395L17.7855 16.1645C17.7319 16.1102 17.6742 16.06 17.613 16.0145C17.0253 16.8174 16.3181 17.5256 15.516 18.1145V18.113Z" fill="white"/>
<path fill-rule="evenodd" clip-rule="evenodd" d="M9.75 5C9.94891 5 10.1397 5.07902 10.2803 5.21967C10.421 5.36032 10.5 5.55109 10.5 5.75V9.5H14.25C14.4489 9.5 14.6397 9.57902 14.7803 9.71967C14.921 9.86032 15 10.0511 15 10.25C15 10.4489 14.921 10.6397 14.7803 10.7803C14.6397 10.921 14.4489 11 14.25 11H10.5V14.75C10.5 14.9489 10.421 15.1397 10.2803 15.2803C10.1397 15.421 9.94891 15.5 9.75 15.5C9.55109 15.5 9.36032 15.421 9.21967 15.2803C9.07902 15.1397 9 14.9489 9 14.75V11H5.25C5.05109 11 4.86032 10.921 4.71967 10.7803C4.57902 10.6397 4.5 10.4489 4.5 10.25C4.5 10.0511 4.57902 9.86032 4.71967 9.71967C4.86032 9.57902 5.05109 9.5 5.25 9.5H9V5.75C9 5.55109 9.07902 5.36032 9.21967 5.21967C9.36032 5.07902 9.55109 5 9.75 5Z" fill="white"/>
</g>
<defs>
<clipPath id="clip0_1_2">
<rect width="24" height="24" fill="white" transform="translate(0 0.5)"/>
</clipPath>
</defs>
</svg>
